<svg width="189" height="42" viewBox="0 0 189 42" fill="none" xmlns="http://www.w3.org/2000/svg">
<g clip-path="url(#clip0_497_2720)">
<path d="M19.8111 19.7734H18.0838V10.0805C18.0892 8.98818 17.8747 7.90576 17.453 6.89681C17.0488 5.91956 16.4629 5.02666 15.7257 4.26482C14.9866 3.50588 14.1069 2.89575 13.1348 2.46791C12.133 2.02443 11.0475 1.7982 9.95066 1.80432H9.86805C8.77118 1.79797 7.6856 2.02421 6.68388 2.46791C5.711 2.88826 4.82879 3.49075 4.08548 4.24245C3.34806 5.00407 2.76205 5.89703 2.35822 6.87444C1.93649 7.88339 1.72202 8.96581 1.72739 10.0582L1.76494 19.7511H0.000127383V10.0582C-0.00654603 8.78987 0.249056 7.5337 0.751111 6.36743C1.75224 4.01669 3.61119 2.12843 5.95543 1.08108C7.15097 0.536213 8.44759 0.244213 9.76291 0.223633H9.99572C11.2905 0.240702 12.5682 0.519778 13.7506 1.0438C14.8955 1.55134 15.9347 2.267 16.8146 3.15387C17.7007 4.05139 18.4135 5.1027 18.9174 6.25559C19.4446 7.45759 19.7376 8.74787 19.781 10.0582L19.8111 19.7734Z" fill="#0A0A0A"/>
<path d="M143.49 10.0583C143.445 8.77454 143.702 7.49812 144.241 6.33023C144.764 5.1521 145.503 4.08027 146.419 3.16886C147.34 2.25625 148.428 1.52732 149.625 1.02151C150.809 0.508779 152.089 0.254504 153.38 0.275905V1.9908C152.286 1.98321 151.201 2.20156 150.196 2.63202C148.248 3.45811 146.694 4.99556 145.856 6.92671C145.421 7.91653 145.201 8.986 145.21 10.0657V19.8108H143.482L143.49 10.0583Z" fill="#0A0A0A"/>
<path d="M189 19.8108H187.273V10.0583C187.277 8.98374 187.058 7.91993 186.627 6.93418C186.21 5.96933 185.617 5.08956 184.877 4.33947C184.136 3.59412 183.256 2.99901 182.286 2.58729C181.281 2.15684 180.197 1.93848 179.102 1.94607C178.014 1.93764 176.937 2.1561 175.94 2.58729C174.977 3.00233 174.102 3.59715 173.364 4.33947C172.628 5.08398 172.035 5.95573 171.615 6.91181C171.181 7.90176 170.961 8.97114 170.969 10.0508C170.961 11.1376 171.181 12.2141 171.615 13.2122C172.447 15.1462 173.995 16.689 175.94 17.5218C176.937 17.9528 178.014 18.1712 179.102 18.163C179.464 18.1623 179.825 18.1349 180.183 18.081C180.536 18.0288 180.882 17.9617 181.227 17.8871C181.347 18.2621 181.492 18.6283 181.663 18.9832C181.696 19.1626 181.762 19.3345 181.858 19.4902C181.413 19.6202 180.958 19.7174 180.499 19.781C180.036 19.846 179.569 19.8784 179.102 19.8779C177.792 19.8947 176.493 19.6408 175.287 19.1323C174.11 18.6322 173.041 17.9106 172.14 17.0073C171.244 16.1046 170.524 15.0455 170.015 13.8832C169.503 12.7072 169.235 11.4404 169.229 10.159C169.222 8.87764 169.477 7.60823 169.977 6.42716C170.466 5.25725 171.166 4.18586 172.043 3.26579C172.926 2.32413 173.988 1.56411 175.167 1.02898C176.404 0.480598 177.747 0.205837 179.102 0.223721C180.412 0.207596 181.711 0.461482 182.917 0.969327C185.3 1.98538 187.199 3.87289 188.219 6.24076C188.731 7.4381 188.986 8.72788 188.97 10.0284L189 19.8108Z" fill="#0A0A0A"/>
<path d="M45.8322 20.7279C51.5973 20.7279 56.2709 16.0878 56.2709 10.3639C56.2709 4.64009 51.5973 0 45.8322 0C40.0671 0 35.3936 4.64009 35.3936 10.3639C35.3936 16.0878 40.0671 20.7279 45.8322 20.7279Z" fill="#E29A8F"/>
<path d="M81.4514 20.7279C87.2165 20.7279 91.89 16.0878 91.89 10.3639C91.89 4.64009 87.2165 0 81.4514 0C75.6862 0 71.0127 4.64009 71.0127 10.3639C71.0127 16.0878 75.6862 20.7279 81.4514 20.7279Z" fill="#C67D71"/>
<path d="M117.071 20.7279C122.836 20.7279 127.509 16.0878 127.509 10.3639C127.509 4.64009 122.836 0 117.071 0C111.305 0 106.632 4.64009 106.632 10.3639C106.632 16.0878 111.305 20.7279 117.071 20.7279Z" fill="#9E5A57"/>
<path d="M26.502 34.939H28.4245C29.0906 34.8895 29.756 35.043 30.332 35.3789C30.5367 35.5323 30.6996 35.7341 30.8058 35.9659C30.912 36.1976 30.9582 36.4521 30.9403 36.7061C30.9534 37.0763 30.8215 37.4371 30.5723 37.7127C30.2789 38.0022 29.8947 38.1837 29.4834 38.2272C29.9407 38.2669 30.3728 38.4526 30.715 38.7565C30.8536 38.9083 30.9602 39.0862 31.0286 39.2795C31.097 39.4729 31.1256 39.6779 31.113 39.8824C31.1301 40.1638 31.0807 40.4452 30.9685 40.7042C30.8563 40.9631 30.6846 41.1924 30.4671 41.3736C29.9378 41.7516 29.293 41.936 28.6423 41.8955H26.502V34.939ZM26.9901 38.0258H28.5371C29.0377 38.0642 29.5382 37.9497 29.9715 37.6978C30.1257 37.5777 30.2476 37.4216 30.3262 37.2433C30.4049 37.0651 30.4378 36.8703 30.4221 36.6763C30.4367 36.4791 30.3977 36.2817 30.3092 36.1047C30.2207 35.9276 30.0859 35.7774 29.9189 35.6697C29.4558 35.4329 28.9369 35.3247 28.417 35.3566H26.9901V38.0258ZM26.9901 38.4583V41.4407H28.6423C29.939 41.4407 30.5873 40.9163 30.5873 39.8675C30.5873 38.9131 29.9039 38.4359 28.5371 38.4359L26.9901 38.4583Z" fill="#0A0A0A"/>
<path d="M39.4492 41.9032H35.6191V34.9392H39.4492V35.3866H36.0998V38.026H39.2539V38.4734H36.0998V41.4558H39.4416L39.4492 41.9032Z" fill="#0A0A0A"/>
<path d="M47.3573 39.4499H44.5111L43.5573 41.903H43.0166L45.8103 34.9092H46.1257L48.8893 41.903H48.3336L47.3573 39.4499ZM44.6838 39.01H47.1921L46.2383 36.5346C46.1582 36.3358 46.0631 36.0624 45.9529 35.7144C45.8736 35.993 45.7783 36.2668 45.6676 36.5346L44.6838 39.01Z" fill="#0A0A0A"/>
<path d="M57.9836 34.9392V39.4129C58.0041 39.7569 57.9526 40.1015 57.8324 40.4249C57.7122 40.7482 57.5259 41.0434 57.2852 41.2918C57.0212 41.5276 56.7127 41.7091 56.3775 41.8256C56.0423 41.942 55.6872 41.9912 55.3327 41.9703C54.9846 42.0027 54.6337 41.9583 54.3049 41.8403C53.9762 41.7224 53.6777 41.5338 53.4309 41.288C53.1841 41.0423 52.995 40.7454 52.8772 40.4187C52.7593 40.092 52.7157 39.7434 52.7493 39.398V34.9243H53.2449V39.398C53.2168 39.6846 53.2531 39.9739 53.3512 40.2449C53.4493 40.5159 53.6067 40.7619 53.8122 40.9652C54.0177 41.1685 54.266 41.324 54.5393 41.4204C54.8127 41.5169 55.1041 41.5519 55.3927 41.5229C55.6684 41.5491 55.9464 41.5159 56.2079 41.4255C56.4694 41.3352 56.7082 41.1898 56.9078 40.9993C57.1075 40.8089 57.2634 40.5778 57.3648 40.3221C57.4662 40.0663 57.5108 39.7917 57.4955 39.5173V34.9392H57.9836Z" fill="#0A0A0A"/>
<path d="M64.6675 41.9032H64.1719V35.394H61.9189V34.9392H66.9731V35.394H64.7201L64.6675 41.9032Z" fill="#0A0A0A"/>
<path d="M72.5454 38.7716L74.5956 34.9616H75.1212L72.7857 39.2339V41.9032H72.2825V39.2488L69.9395 34.9392H70.5027L72.5454 38.7716Z" fill="#0A0A0A"/>
<path d="M87.5646 35.2746C87.1774 35.2543 86.7905 35.3185 86.4311 35.4628C86.0717 35.6071 85.7485 35.8279 85.4844 36.1096C84.9518 36.754 84.6836 37.5741 84.7334 38.4061C84.6921 39.2416 84.9591 40.0634 85.4844 40.7175C85.7405 40.9987 86.0571 41.2191 86.4107 41.3624C86.7643 41.5057 87.1458 41.5681 87.527 41.5451C88.0759 41.5506 88.6226 41.4752 89.1492 41.3214V41.7539C88.5888 41.9317 88.0024 42.0149 87.4144 41.9999C86.9801 42.0216 86.5463 41.948 86.1439 41.7844C85.7416 41.6207 85.3805 41.371 85.0863 41.053C84.4813 40.3064 84.1787 39.3625 84.2377 38.4061C84.224 37.7594 84.3629 37.1185 84.6433 36.5346C84.8965 36.011 85.302 35.5748 85.8073 35.282C86.3451 34.9808 86.9547 34.8288 87.5721 34.8421C88.2063 34.8305 88.8351 34.9604 89.412 35.2224L89.2167 35.6623C88.7056 35.4026 88.1387 35.2696 87.5646 35.2746Z" fill="#0A0A0A"/>
<path d="M99.5133 38.4136C99.5592 39.35 99.2632 40.2713 98.6797 41.0083C98.3807 41.3143 98.023 41.5575 97.6276 41.7237C97.2322 41.8898 96.8072 41.9754 96.3779 41.9754C95.9486 41.9754 95.5236 41.8898 95.1282 41.7237C94.7328 41.5575 94.3751 41.3143 94.0761 41.0083C93.4851 40.2608 93.1888 39.3251 93.2425 38.3763C93.1979 37.44 93.4997 36.5197 94.0912 35.7891C94.391 35.4861 94.7487 35.2454 95.1432 35.0812C95.5378 34.9169 95.9613 34.8323 96.3892 34.8323C96.817 34.8323 97.2406 34.9169 97.6351 35.0812C98.0297 35.2454 98.3873 35.4861 98.6872 35.7891C99.275 36.535 99.5687 37.4681 99.5133 38.4136ZM93.7757 38.4136C93.7221 39.2377 93.9583 40.0547 94.4441 40.725C94.6949 40.9827 94.9953 41.1877 95.3275 41.3277C95.6598 41.4677 96.017 41.5398 96.3779 41.5398C96.7388 41.5398 97.096 41.4677 97.4283 41.3277C97.7605 41.1877 98.0609 40.9827 98.3117 40.725C98.7986 40.0524 99.0348 39.2327 98.9801 38.4062C99.0362 37.5818 98.7998 36.764 98.3117 36.0948C98.0605 35.8391 97.7604 35.6359 97.4289 35.4972C97.0974 35.3585 96.7414 35.287 96.3817 35.287C96.0219 35.287 95.6659 35.3585 95.3344 35.4972C95.0029 35.6359 94.7028 35.8391 94.4516 36.0948C93.9568 36.7639 93.7173 37.5856 93.7757 38.4136Z" fill="#0A0A0A"/>
<path d="M109.178 41.9032H108.683L104.53 35.7221H104.492C104.532 36.4578 104.552 37.0145 104.552 37.3923V41.9032H104.079V34.9392H104.567L108.72 41.1128C108.69 40.5412 108.675 39.9969 108.675 39.48V34.9392H109.148L109.178 41.9032Z" fill="#0A0A0A"/>
<path d="M117.101 35.2747C116.714 35.2544 116.327 35.3186 115.967 35.4629C115.608 35.6072 115.285 35.828 115.02 36.1098C114.488 36.7541 114.22 37.5742 114.27 38.4062C114.228 39.2418 114.495 40.0639 115.02 40.7176C115.277 40.9984 115.594 41.2185 115.947 41.3618C116.301 41.505 116.682 41.5677 117.063 41.5452C117.612 41.5507 118.159 41.4753 118.685 41.3215V41.754C118.125 41.9318 117.539 42.015 116.951 42.0001C116.516 42.0223 116.082 41.9489 115.68 41.7852C115.277 41.6215 114.916 41.3715 114.622 41.0531C114.017 40.3065 113.715 39.3627 113.774 38.4062C113.751 37.7619 113.88 37.1213 114.149 36.5348C114.403 36.0112 114.808 35.5749 115.313 35.2821C115.854 34.9799 116.466 34.8279 117.086 34.8422C117.72 34.8303 118.349 34.9603 118.926 35.2225L118.73 35.6624C118.226 35.4062 117.667 35.2733 117.101 35.2747Z" fill="#0A0A0A"/>
<path d="M123.161 41.9032V34.9392H123.649V41.9032H123.161Z" fill="#0A0A0A"/>
<path d="M132.413 41.9032H128.583V34.9392H132.413V35.3866H129.071V38.026H132.225V38.4734H129.071V41.4558H132.413V41.9032Z" fill="#0A0A0A"/>
<path d="M137.43 38.8684V41.903H136.941V34.9391H138.609C139.287 34.8868 139.964 35.0542 140.539 35.4163C140.751 35.5893 140.918 35.8103 141.026 36.0606C141.135 36.311 141.181 36.5834 141.162 36.8553C141.176 37.2813 141.043 37.6993 140.786 38.0408C140.498 38.3885 140.102 38.6322 139.66 38.7342L141.567 41.903H140.982L139.172 38.8684H137.43ZM137.43 38.4509H138.766C139.256 38.4796 139.742 38.34 140.141 38.0557C140.308 37.9131 140.439 37.7336 140.524 37.5317C140.608 37.3297 140.644 37.1108 140.629 36.8926C140.647 36.6758 140.613 36.4579 140.53 36.2568C140.446 36.0558 140.315 35.8775 140.148 35.7369C139.679 35.4559 139.132 35.3281 138.586 35.3715H137.43V38.4509Z" fill="#0A0A0A"/>
<path d="M148.499 38.3912H151.082V41.5674C150.368 41.8588 149.602 42.0058 148.83 41.9999C148.363 42.0304 147.895 41.9632 147.457 41.8026C147.018 41.6421 146.619 41.3917 146.284 41.0679C145.656 40.3346 145.339 39.3888 145.398 38.4284C145.383 37.7736 145.533 37.1254 145.833 36.5421C146.116 36.0056 146.552 35.5644 147.087 35.2745C147.664 34.9687 148.311 34.8147 148.965 34.8272C149.673 34.8148 150.376 34.9573 151.022 35.2447L150.827 35.6846C150.235 35.4091 149.589 35.2666 148.935 35.2671C148.528 35.2471 148.122 35.3124 147.743 35.4589C147.364 35.6054 147.02 35.8296 146.734 36.1171C146.17 36.7466 145.878 37.5718 145.923 38.4135C145.853 39.2686 146.122 40.117 146.674 40.7771C146.975 41.0548 147.331 41.2683 147.718 41.4042C148.106 41.5402 148.517 41.5957 148.927 41.5674C149.488 41.5824 150.046 41.4913 150.572 41.299V38.8534H148.484L148.499 38.3912Z" fill="#0A0A0A"/>
<path d="M159.622 41.9032H155.792V34.9392H159.622V35.3866H156.28V38.026H159.434V38.4734H156.28V41.4558H159.622V41.9032Z" fill="#0A0A0A"/>
</g>
<defs>
<clipPath id="clip0_497_2720">
<rect width="189" height="42" fill="white"/>
</clipPath>
</defs>
</svg>
